<?xml version="1.0" encoding="UTF-8" standalone="no"?>
<!DOCTYPE svg PUBLIC "-//W3C//DTD SVG 1.1//EN" "http://www.w3.org/Graphics/SVG/1.1/DTD/svg11.dtd">
<svg width="100%" height="100%" viewBox="0 0 1806 1488" version="1.1" xmlns="http://www.w3.org/2000/svg" xmlns:xlink="http://www.w3.org/1999/xlink" xml:space="preserve" xmlns:serif="http://www.serif.com/" style="fill-rule:evenodd;clip-rule:evenodd;stroke-linejoin:round;stroke-miterlimit:1.41421;">
    <rect id="Artboard1" x="0" y="0" width="1806" height="1487.55" style="fill:none;"/>
    <clipPath id="_clip1">
        <rect id="Artboard11" serif:id="Artboard1" x="0" y="0" width="1806" height="1487.55"/>
    </clipPath>
    <g clip-path="url(#_clip1)">
        <g transform="matrix(1,0,0,1,-298.753,-1040.2)">
            <g opacity="0.557143">
                <path d="M1402.79,1510.32C1394.54,1514.07 1404.86,1526.16 1408.99,1529.6C1413.12,1533.05 1414.5,1536.49 1412.43,1543.38C1410.36,1550.26 1411.74,1552.33 1414.5,1558.52C1417.25,1564.72 1422.07,1572.98 1415.18,1570.23C1408.3,1567.48 1400.72,1561.97 1395.9,1553.7C1391.08,1545.44 1385.57,1543.38 1382.13,1542.69C1378.69,1542 1382.82,1534.42 1378,1532.36C1373.18,1530.29 1354.59,1530.29 1349.77,1537.87C1344.95,1545.44 1336.68,1553.7 1338.75,1557.84C1340.82,1561.97 1344.95,1562.65 1349.08,1562.65C1353.21,1562.65 1349.08,1564.03 1351.14,1570.23C1353.21,1576.43 1360.79,1581.94 1364.23,1587.44C1367.67,1592.95 1373.87,1583.31 1373.87,1590.89C1373.87,1598.46 1373.18,1607.41 1378.69,1608.1C1384.2,1608.79 1389.02,1608.79 1393.84,1615.68C1398.66,1622.56 1397.28,1630.83 1406.23,1630.83C1415.18,1630.83 1424.82,1625.32 1428.96,1614.99C1433.09,1604.66 1437.91,1592.95 1437.91,1584C1437.91,1575.05 1444.79,1575.74 1446.86,1572.3C1448.92,1568.85 1455.81,1535.11 1453.75,1528.23C1451.68,1521.34 1452.37,1529.6 1440.66,1524.78C1428.96,1519.96 1410.36,1506.88 1402.79,1510.32Z" style="fill:rgb(179,179,179);"/>
                <path d="M1457.88,1614.3C1474.19,1628.29 1491.85,1627.84 1497.36,1629.68C1502.87,1631.51 1508.37,1622.33 1519.39,1633.35C1530.41,1644.37 1556.12,1681.09 1578.15,1708.64C1600.19,1736.18 1622.22,1772.9 1640.58,1782.09C1658.94,1791.27 1682.82,1715.98 1682.82,1699.45C1682.82,1682.93 1653.44,1690.27 1640.58,1684.77C1627.73,1679.26 1609.37,1657.22 1589.17,1633.35C1568.97,1609.48 1563.46,1587.44 1543.26,1576.43C1523.06,1565.41 1465.91,1555.08 1449.38,1564.26C1432.86,1573.44 1445.02,1603.28 1457.88,1614.3Z" style="fill:rgb(204,204,204);"/>
                <path d="M1895.82,1174.29C1940.5,1174.29 1934.38,1192.65 1952.75,1201.83C1971.11,1211.01 2002.32,1229.38 2006,1249.58C2009.67,1269.77 2004.16,1277.12 2013.34,1295.48C2022.52,1313.84 2068.43,1343.22 2075.77,1363.42C2083.12,1383.62 2114.33,1451.56 2101.48,1495.63C2088.63,1539.7 2048.23,1682.93 2037.21,1710.47C2026.19,1738.02 1993.14,1798.61 1987.63,1813.3C1982.13,1827.99 1987.63,1831.66 1994.98,1840.85C2002.32,1850.03 2006,1903.28 2000.49,1928.99C1994.98,1954.69 1994.98,2026.31 1982.13,2046.51C1969.27,2066.7 1958.25,2059.36 1952.75,2061.2C1947.24,2063.03 1947.24,2094.25 1930.71,2108.94C1914.18,2123.63 1925.2,2184.22 1919.69,2211.77C1914.18,2239.31 1910.51,2265.02 1903.17,2281.55C1895.82,2298.07 1938.06,2353.16 1930.71,2389.88C1923.37,2426.61 1906.84,2426.61 1916.02,2446.81C1925.2,2467.01 1985.8,2533.11 1976.62,2553.31C1967.43,2573.51 1682.82,2553.31 1682.82,2553.31C1682.82,2553.31 1668.13,2536.78 1657.11,2498.22C1646.09,2459.66 1647.93,2422.94 1646.09,2406.41C1644.26,2389.88 1640.58,2338.47 1636.91,2320.11C1633.24,2301.74 1640.58,2266.86 1636.91,2226.46C1633.24,2186.06 1631.4,2116.28 1631.4,2088.74C1631.4,2061.2 1624.06,2011.62 1635.07,2004.27C1646.09,1996.93 1624.06,2018.96 1622.22,1989.58C1620.38,1960.2 1642.42,1938.17 1635.07,1916.13C1627.73,1894.1 1625.89,1827.99 1631.4,1802.29C1636.91,1776.58 1651.6,1760.05 1658.94,1732.51C1666.29,1704.96 1673.63,1679.26 1675.47,1657.22C1677.31,1635.19 1695.67,1624.17 1701.18,1603.97C1706.69,1583.77 1725.05,1567.25 1728.72,1552.56C1732.39,1537.87 1695.67,1561.74 1664.45,1558.06C1633.24,1554.39 1613.04,1554.39 1594.68,1550.72C1576.31,1547.05 1556.12,1537.87 1552.44,1547.05C1548.77,1556.23 1552.44,1565.41 1532.24,1572.75C1512.05,1580.1 1526.74,1587.44 1513.88,1592.95C1501.03,1598.46 1480.83,1620.5 1473.49,1611.32C1466.14,1602.13 1444.11,1602.13 1440.43,1569.08C1436.76,1536.03 1438.6,1523.18 1458.8,1519.5C1478.99,1515.83 1512.05,1508.49 1526.74,1499.31C1541.43,1490.12 1541.43,1491.96 1554.28,1491.96C1567.13,1491.96 1657.11,1449.73 1686.49,1438.71C1715.87,1427.69 1759.94,1413 1761.78,1403.82C1763.61,1394.64 1767.28,1381.79 1780.14,1376.28C1792.99,1370.77 1811.35,1370.77 1804.01,1359.75C1796.66,1348.73 1791.15,1334.04 1791.15,1324.86C1791.15,1315.68 1802.17,1308.34 1783.81,1304.66C1765.45,1300.99 1759.94,1310.17 1739.74,1297.32C1719.54,1284.46 1701.18,1260.59 1704.85,1240.39C1708.52,1220.19 1728.72,1194.49 1741.58,1194.49C1754.43,1194.49 1813.19,1201.83 1820.54,1201.83C1827.88,1201.83 1864.61,1174.29 1895.82,1174.29Z" style="fill:rgb(217,217,217);"/>
                <path d="M1407.88,1509.22C1334.11,1440.95 1279.94,1392.85 1228.58,1351.26C1181.68,1313.29 1057.47,1229.98 1035.63,1217.12C977.091,1182.64 955.067,1168.09 872.573,1128.84C818.331,1103.03 717.295,1074.61 684.588,1067.83C559.677,1041.94 495.767,1042.19 442.892,1040.7C404.735,1039.63 349.519,1039.88 321.011,1045.52C305.968,1048.5 289.561,1072.85 304.898,1059.85C313.202,1052.8 325.969,1050.2 353.237,1047.17C368.356,1045.5 447.604,1047.35 478.699,1048.28C501.877,1048.97 523.098,1049.73 620.687,1062.46C646.399,1065.82 756.201,1092.76 780.302,1101.71C804.403,1110.66 858.251,1131.18 911.823,1157.07C935.747,1168.64 1023.88,1217.61 1072.95,1251.41C1119.81,1283.69 1186.57,1329.91 1223.07,1358.14C1254.65,1382.57 1312.03,1432.92 1344.81,1463.91C1367.13,1485.01 1397.42,1515.56 1402.93,1517.62C1408.44,1519.69 1410.03,1511.2 1407.88,1509.22Z" style="fill:rgb(179,179,179);"/>
            </g>
        </g>
    </g>
</svg>
